<?xml version="1.0" encoding="UTF-8"?>
<svg width="530px" height="119px" viewBox="0 0 530 119" version="1.1" xmlns="http://www.w3.org/2000/svg" xmlns:xlink="http://www.w3.org/1999/xlink">
    <!-- Generator: Sketch 51.3 (57544) - http://www.bohemiancoding.com/sketch -->
    <title>Group</title>
    <desc>Created with Sketch.</desc>
    <defs></defs>
    <g id="Page-1" stroke="none" stroke-width="1" fill="none" fill-rule="evenodd">
        <g id="Artboard" transform="translate(-57.000000, -63.000000)">
            <g id="Group" transform="translate(54.000000, 63.000000)">
                <path d="M209,59.0390429 C209.138149,54.2374559 210.933095,49.9464426 214.50808,46.3514849 C229.236379,31.5438492 243.968653,16.7382079 258.590607,1.82486748 C260.803976,-0.432825783 262.153664,-0.732987299 264.546926,1.7012129 C273.172805,10.4727102 273.252316,10.3699971 264.388899,19.2192772 C252.308295,31.2815818 240.29925,43.4166831 228.141123,55.4002078 C225.365218,58.1365639 224.765909,60.0472266 228.063601,62.98502 C233.001194,67.3857269 237.583972,72.2132415 242.067362,77.0896196 C244.453666,79.6863658 246.004118,79.5288059 248.405331,77.0497311 C257.052081,68.1186794 266.002959,59.4838005 274.627845,50.5328046 C276.805434,48.2741141 277.936469,48.4117297 280.120022,50.4590107 C289.184202,58.9582685 289.242841,58.8655276 280.587146,67.5572478 C269.826413,78.3630623 259.02195,89.1269939 248.399367,100.067432 C246.016044,102.523571 244.609705,102.732986 242.123019,100.150201 C233.041943,90.7175508 223.723329,81.5142596 214.481245,72.2381719 C210.907255,68.6511919 209.195794,64.2893764 209,59.0390429" id="Fill-4" fill="#FFFFFF"></path>
                <path d="M313.977952,59.9074825 C314.158965,64.8977846 312.122817,69.0290675 308.73957,72.4471648 C293.879487,87.4630197 278.915397,102.37799 264.064315,117.403833 C262.177178,119.312654 260.97909,119.667249 258.819933,117.59961 C249.738271,108.90254 249.656265,108.967466 258.443906,100.171509 C271.022822,87.5808852 283.580737,74.9672873 296.24766,62.4665606 C298.160799,60.5777172 298.764843,59.3341371 296.561683,57.2215493 C291.287299,52.1623259 286.130923,46.9742496 281.084555,41.6882851 C278.766386,39.2600576 277.060262,39.0313188 274.571081,41.603382 C266.131466,50.3254232 257.40683,58.7727781 248.970215,67.4978159 C246.526037,70.0249305 244.929921,70.5443374 242.151719,67.7964749 C234.000125,59.7336809 233.92812,59.8954962 242.064712,51.7967433 C253.029511,40.8812066 264.011311,29.9806528 274.771095,18.8643453 C277.296279,16.2563232 278.568372,16.4770711 280.958546,18.9492484 C289.858194,28.1607308 298.978859,37.1604549 308.073522,46.1831529 C311.918802,49.9977973 314.253972,54.3837894 313.977952,59.9074825" id="Fill-6" fill="#3B77FF"></path>
                <text id="COVE" font-family="CenturyGothic-Bold, Century Gothic" font-size="70" font-weight="bold" fill="#FFFFFF">
                    <tspan x="0" y="78">COVE</tspan>
                </text>
                <text id="CREEK" font-family="CenturyGothic-Bold, Century Gothic" font-size="70" font-weight="bold" fill="#0076C4">
                    <tspan x="323" y="78">CREEK</tspan>
                </text>
            </g>
        </g>
    </g>
</svg>